<svg xmlns="http://www.w3.org/2000/svg" x="0px" y="0px" width="100" height="100" viewBox="0 0 48 48">
    <circle cx="28" cy="28" r="15.875" fill="#8ce7f2"></circle>
    <path fill="none" stroke="#18193f" stroke-linecap="round" stroke-miterlimit="10"
        stroke-width="3"
        d="M38.524,31.824	c1.26-2.327,1.976-4.99,1.976-7.824c0-9.113-7.387-16.5-16.5-16.5h-2"></path>
    <path fill="none" stroke="#18193f" stroke-linecap="round" stroke-miterlimit="10"
        stroke-width="3" d="M33.5,37.477	c0.911-0.643,1.754-1.376,2.517-2.186"></path>
    <path fill="none" stroke="#18193f" stroke-linecap="round" stroke-miterlimit="10"
        stroke-width="3"
        d="M8.379,18.679	C7.809,20.348,7.5,22.137,7.5,24c0,9.113,7.387,16.5,16.5,16.5h2"></path>
    <path fill="none" stroke="#18193f" stroke-linecap="round" stroke-miterlimit="10"
        stroke-width="3" d="M14.5,10.523	c-1.625,1.147-3.034,2.58-4.154,4.225"></path>
    <polyline fill="none" stroke="#18193f" stroke-linecap="round" stroke-linejoin="round"
        stroke-miterlimit="10" stroke-width="3" points="22,35.5 26.5,40 22,44.5"></polyline>
    <polyline fill="none" stroke="#18193f" stroke-linecap="round" stroke-linejoin="round"
        stroke-miterlimit="10" stroke-width="3" points="26,3.5 21.5,8 26,12.5"></polyline>
</svg>
    