<svg width="101" height="138" viewBox="0 0 101 138" fill="none" xmlns="http://www.w3.org/2000/svg">
<path d="M7.55381 43.1651C9.63945 19.3262 31.4036 1.7562 56.159 3.92202C80.9145 6.08784 99.297 27.1702 97.2113 51.0091L89.6575 137.349L2.13683e-05 129.505L7.55381 43.1651Z" fill="#F88C49"/>
<path d="M66.2312 45.7902C66.1161 47.9872 67.36 49.8548 69.0177 49.9417C70.6755 50.0286 72.1078 48.3012 72.223 46.1042C72.3381 43.9072 71.0941 42.0395 69.4364 41.9527C67.7787 41.8658 66.3463 43.5932 66.2312 45.7902ZM50.2531 44.9528C50.138 47.1498 51.3819 49.0175 53.0397 49.1043C54.6974 49.1912 56.1298 47.4638 56.2449 45.2668C56.36 43.0698 55.1161 41.2022 53.4584 41.1153C51.8006 41.0284 50.3683 42.7558 50.2531 44.9528Z" fill="white"/>
<path d="M59.5873 67.4722C64.6504 67.7375 69.1483 62.7361 68.2536 62.0383C67.3589 61.3405 64.6958 64.0048 59.7825 63.7473C54.8693 63.4898 52.5034 60.4819 51.5365 61.1622C50.5696 61.8425 54.5243 67.2068 59.5873 67.4722Z" fill="white"/>
</svg>
